<svg width="24" height="24" fill="none" xmlns="http://www.w3.org/2000/svg"><path fill-rule="evenodd" clip-rule="evenodd" d="M12 20.333a8.333 8.333 0 100-16.666 8.333 8.333 0 000 16.666zm0-1.666a6.667 6.667 0 100-13.334 6.667 6.667 0 000 13.334zm-.833-10.834H9.5v5.834h5.833V12h-4.166V7.833z" fill="#2D2D2D"/><mask id="a" maskUnits="userSpaceOnUse" x="3" y="3" width="18" height="18"><path fill-rule="evenodd" clip-rule="evenodd" d="M12 20.333a8.333 8.333 0 100-16.666 8.333 8.333 0 000 16.666zm0-1.666a6.667 6.667 0 100-13.334 6.667 6.667 0 000 13.334zm-.833-10.834H9.5v5.834h5.833V12h-4.166V7.833z" fill="#fff"/></mask></svg>